<svg xmlns="http://www.w3.org/2000/svg" version="1.1" xmlns:xlink="http://www.w3.org/1999/xlink" xmlns:svgjs="http://svgjs.dev/svgjs" width="2000" height="1487" viewBox="0 0 2000 1487"><g transform="matrix(1,0,0,1,0.282181357006948,0.602024291497969)"><svg viewBox="0 0 332 247" data-background-color="#b4b8db" preserveAspectRatio="xMidYMid meet" height="1487" width="2000" xmlns="http://www.w3.org/2000/svg" xmlns:xlink="http://www.w3.org/1999/xlink"><g id="tight-bounds" transform="matrix(1,0,0,1,-0.04684210526315269,-0.09999999999999432)"><svg viewBox="0 0 332.0936842105263 247.2" height="247.2" width="332.0936842105263"><g><svg viewBox="0 0 332.0936842105263 247.2" height="247.2" width="332.0936842105263"><g><svg viewBox="0 0 332.0936842105263 247.2" height="247.2" width="332.0936842105263"><g id="textblocktransform"><svg viewBox="0 0 332.0936842105263 247.2" height="247.2" width="332.0936842105263" id="textblock"><g><svg viewBox="0 0 332.0936842105263 247.2" height="247.2" width="332.0936842105263"><g transform="matrix(1,0,0,1,0,0)"><svg width="332.0936842105263" viewBox="0.75 -37.5 51.05 38" height="247.2" data-palette-color="#1dbc78"><g class="wordmark-text-0" data-fill-palette-color="primary" id="text-0"><path d="M16.15-37.5L22.15-37.5 22.15 0 16.5 0 16.4-1.6Q15.2-0.55 13.83-0.03 12.45 0.5 10.65 0.5L10.65 0.5Q7.55 0.5 5.3-1.25 3.05-3 1.9-5.95 0.75-8.9 0.75-12.45L0.75-12.45Q0.75-16 1.9-18.95 3.05-21.9 5.3-23.65 7.55-25.4 10.65-25.4L10.65-25.4Q13.9-25.4 16.15-23.45L16.15-23.45 16.15-37.5ZM11.55-4.4Q14-4.4 15.23-6.58 16.45-8.75 16.45-12.45L16.45-12.45Q16.45-16.15 15.23-18.32 14-20.5 11.55-20.5L11.55-20.5Q9.35-20.5 8.1-18.3 6.85-16.1 6.85-12.45L6.85-12.45Q6.85-8.8 8.1-6.6 9.35-4.4 11.55-4.4L11.55-4.4ZM37.65 0.5Q33.9 0.5 31.22-1.23 28.55-2.95 27.2-5.9 25.85-8.85 25.85-12.45L25.85-12.45Q25.85-16.1 27.2-19.03 28.55-21.95 31.25-23.68 33.95-25.4 37.85-25.4L37.85-25.4Q40.7-25.4 42.65-24.55L42.65-24.55 42.2-19.65Q40.4-20.5 38.55-20.5L38.55-20.5Q35.45-20.5 33.7-18.3 31.95-16.1 31.95-12.45L31.95-12.45Q31.95-8.9 33.67-6.65 35.4-4.4 38.5-4.4L38.5-4.4Q40.55-4.4 42.35-5.3L42.35-5.3 42.75-0.5Q41.8-0.05 40.45 0.23 39.1 0.5 37.65 0.5L37.65 0.5ZM45.7 0L45.7-6.8 51.8-6.8 51.8 0 45.7 0Z" fill="#1dbc78" data-fill-palette-color="primary"></path></g></svg></g></svg></g></svg></g></svg></g><g></g></svg></g><defs></defs></svg><rect width="332.0936842105263" height="247.2" fill="none" stroke="none" visibility="hidden"></rect></g></svg></g></svg>